<mxfile host="app.diagrams.net" agent="Mozilla/5.0 (Windows NT 10.0; Win64; x64) AppleWebKit/537.36 (KHTML, like Gecko) Chrome/131.0.0.0 Safari/537.36" version="25.0.3">
  <diagram name="Trang-1" id="Vf1dSTlUYdZEdcFuo73k">
    <mxGraphModel dx="794" dy="446" grid="1" gridSize="10" guides="1" tooltips="1" connect="1" arrows="1" fold="1" page="1" pageScale="1" pageWidth="827" pageHeight="1169" math="0" shadow="0">
      <root>
        <mxCell id="0" />
        <mxCell id="1" parent="0" />
        <mxCell id="W1qoWE-HcPZ815znV9UU-14" style="edgeStyle=orthogonalEdgeStyle;rounded=0;orthogonalLoop=1;jettySize=auto;html=1;entryX=0.5;entryY=0;entryDx=0;entryDy=0;" edge="1" parent="1" source="W1qoWE-HcPZ815znV9UU-1" target="W1qoWE-HcPZ815znV9UU-2">
          <mxGeometry relative="1" as="geometry" />
        </mxCell>
        <mxCell id="W1qoWE-HcPZ815znV9UU-1" value="START" style="ellipse;whiteSpace=wrap;html=1;" vertex="1" parent="1">
          <mxGeometry x="354" y="20" width="120" height="80" as="geometry" />
        </mxCell>
        <mxCell id="W1qoWE-HcPZ815znV9UU-2" value="NHẬP VÀO SỐ&amp;nbsp;&lt;div class=&quot;custom-cursor-default-hover&quot;&gt;ĐIỂM&lt;/div&gt;" style="shape=parallelogram;perimeter=parallelogramPerimeter;whiteSpace=wrap;html=1;fixedSize=1;" vertex="1" parent="1">
          <mxGeometry x="354" y="150" width="120" height="60" as="geometry" />
        </mxCell>
        <mxCell id="W1qoWE-HcPZ815znV9UU-3" value="ĐIỂM &amp;lt; 5" style="strokeWidth=2;html=1;shape=mxgraph.flowchart.decision;whiteSpace=wrap;" vertex="1" parent="1">
          <mxGeometry x="364" y="270" width="100" height="100" as="geometry" />
        </mxCell>
        <mxCell id="W1qoWE-HcPZ815znV9UU-4" value="không đạt" style="shape=parallelogram;html=1;strokeWidth=2;perimeter=parallelogramPerimeter;whiteSpace=wrap;rounded=1;arcSize=12;size=0.23;" vertex="1" parent="1">
          <mxGeometry x="264" y="440" width="100" height="60" as="geometry" />
        </mxCell>
        <mxCell id="W1qoWE-HcPZ815znV9UU-5" value="đạt" style="shape=parallelogram;html=1;strokeWidth=2;perimeter=parallelogramPerimeter;whiteSpace=wrap;rounded=1;arcSize=12;size=0.23;" vertex="1" parent="1">
          <mxGeometry x="460" y="440" width="100" height="60" as="geometry" />
        </mxCell>
        <mxCell id="W1qoWE-HcPZ815znV9UU-6" style="edgeStyle=orthogonalEdgeStyle;rounded=0;orthogonalLoop=1;jettySize=auto;html=1;entryX=0.573;entryY=-0.067;entryDx=0;entryDy=0;entryPerimeter=0;" edge="1" parent="1" source="W1qoWE-HcPZ815znV9UU-3" target="W1qoWE-HcPZ815znV9UU-4">
          <mxGeometry relative="1" as="geometry">
            <Array as="points">
              <mxPoint x="321" y="320" />
            </Array>
          </mxGeometry>
        </mxCell>
        <mxCell id="W1qoWE-HcPZ815znV9UU-7" style="edgeStyle=orthogonalEdgeStyle;rounded=0;orthogonalLoop=1;jettySize=auto;html=1;entryX=0.593;entryY=-0.056;entryDx=0;entryDy=0;entryPerimeter=0;" edge="1" parent="1" source="W1qoWE-HcPZ815znV9UU-3" target="W1qoWE-HcPZ815znV9UU-5">
          <mxGeometry relative="1" as="geometry">
            <Array as="points">
              <mxPoint x="519" y="320" />
            </Array>
          </mxGeometry>
        </mxCell>
        <mxCell id="W1qoWE-HcPZ815znV9UU-8" value="true" style="text;html=1;align=center;verticalAlign=middle;resizable=0;points=[];autosize=1;strokeColor=none;fillColor=none;" vertex="1" parent="1">
          <mxGeometry x="330" y="300" width="40" height="30" as="geometry" />
        </mxCell>
        <mxCell id="W1qoWE-HcPZ815znV9UU-9" value="false" style="text;html=1;align=center;verticalAlign=middle;resizable=0;points=[];autosize=1;strokeColor=none;fillColor=none;" vertex="1" parent="1">
          <mxGeometry x="450" y="300" width="50" height="30" as="geometry" />
        </mxCell>
        <mxCell id="W1qoWE-HcPZ815znV9UU-10" value="END" style="strokeWidth=2;html=1;shape=mxgraph.flowchart.start_1;whiteSpace=wrap;" vertex="1" parent="1">
          <mxGeometry x="360" y="555" width="100" height="60" as="geometry" />
        </mxCell>
        <mxCell id="W1qoWE-HcPZ815znV9UU-11" style="edgeStyle=orthogonalEdgeStyle;rounded=0;orthogonalLoop=1;jettySize=auto;html=1;entryX=0.5;entryY=0;entryDx=0;entryDy=0;entryPerimeter=0;" edge="1" parent="1" source="W1qoWE-HcPZ815znV9UU-4" target="W1qoWE-HcPZ815znV9UU-10">
          <mxGeometry relative="1" as="geometry" />
        </mxCell>
        <mxCell id="W1qoWE-HcPZ815znV9UU-12" style="edgeStyle=orthogonalEdgeStyle;rounded=0;orthogonalLoop=1;jettySize=auto;html=1;entryX=0.5;entryY=0;entryDx=0;entryDy=0;entryPerimeter=0;" edge="1" parent="1" source="W1qoWE-HcPZ815znV9UU-5" target="W1qoWE-HcPZ815znV9UU-10">
          <mxGeometry relative="1" as="geometry" />
        </mxCell>
        <mxCell id="W1qoWE-HcPZ815znV9UU-13" style="edgeStyle=orthogonalEdgeStyle;rounded=0;orthogonalLoop=1;jettySize=auto;html=1;entryX=0.5;entryY=0;entryDx=0;entryDy=0;entryPerimeter=0;" edge="1" parent="1" source="W1qoWE-HcPZ815znV9UU-2" target="W1qoWE-HcPZ815znV9UU-3">
          <mxGeometry relative="1" as="geometry" />
        </mxCell>
      </root>
    </mxGraphModel>
  </diagram>
</mxfile>
